<svg width="2411" height="292" viewBox="0 0 2411 292" fill="none" xmlns="http://www.w3.org/2000/svg">
<path d="M1932.94 192.768C1928.3 192.768 1924.7 191.792 1922.14 189.84C1919.58 187.856 1918.23 185.04 1918.1 181.392H1924.92C1925.14 183.44 1925.86 184.912 1927.08 185.808C1928.33 186.704 1930.18 187.152 1932.65 187.152C1934.6 187.152 1936.2 186.8 1937.45 186.096C1938.7 185.36 1939.32 184.24 1939.32 182.736C1939.32 182.192 1939.24 181.712 1939.08 181.296C1938.95 180.848 1938.66 180.464 1938.22 180.144C1937.77 179.792 1937.38 179.52 1937.06 179.328C1936.74 179.104 1936.15 178.88 1935.29 178.656C1934.42 178.4 1933.77 178.224 1933.32 178.128C1932.87 178 1932.04 177.792 1930.82 177.504C1929.35 177.152 1928.14 176.848 1927.18 176.592C1926.25 176.336 1925.21 175.936 1924.06 175.392C1922.94 174.848 1922.04 174.256 1921.37 173.616C1920.73 172.944 1920.18 172.08 1919.74 171.024C1919.29 169.936 1919.06 168.704 1919.06 167.328C1919.06 164.032 1920.26 161.504 1922.66 159.744C1925.1 157.952 1928.28 157.056 1932.22 157.056C1936.12 157.056 1939.24 157.984 1941.58 159.84C1943.91 161.696 1945.21 164.336 1945.46 167.76H1938.79C1938.6 166.096 1937.9 164.816 1936.68 163.92C1935.5 163.024 1933.99 162.576 1932.17 162.576C1930.28 162.576 1928.78 162.944 1927.66 163.68C1926.54 164.416 1925.98 165.392 1925.98 166.608C1925.98 167.92 1926.52 168.88 1927.61 169.488C1928.73 170.096 1930.68 170.704 1933.46 171.312C1935.13 171.664 1936.49 172 1937.54 172.32C1938.6 172.608 1939.74 173.04 1940.95 173.616C1942.2 174.16 1943.16 174.768 1943.83 175.44C1944.54 176.112 1945.11 177.008 1945.56 178.128C1946.04 179.216 1946.28 180.48 1946.28 181.92C1946.28 185.312 1945.05 187.968 1942.58 189.888C1940.12 191.808 1936.9 192.768 1932.94 192.768ZM1977.51 187.776C1974.5 191.104 1970.5 192.768 1965.51 192.768C1960.52 192.768 1956.5 191.104 1953.46 187.776C1950.45 184.416 1948.95 180.128 1948.95 174.912C1948.95 169.696 1950.45 165.408 1953.46 162.048C1956.5 158.688 1960.52 157.008 1965.51 157.008C1970.5 157.008 1974.5 158.688 1977.51 162.048C1980.52 165.408 1982.02 169.696 1982.02 174.912C1982.02 180.128 1980.52 184.416 1977.51 187.776ZM1958.5 183.648C1960.16 185.92 1962.52 187.056 1965.56 187.056C1968.6 187.056 1970.92 185.936 1972.52 183.696C1974.12 181.424 1974.92 178.496 1974.92 174.912C1974.92 171.328 1974.12 168.4 1972.52 166.128C1970.92 163.856 1968.6 162.72 1965.56 162.72C1962.52 162.72 1960.16 163.856 1958.5 166.128C1956.87 168.4 1956.05 171.328 1956.05 174.912C1956.05 178.464 1956.87 181.376 1958.5 183.648ZM2000.85 192.72C1996.02 192.72 1992.05 191.056 1988.95 187.728C1985.88 184.368 1984.34 180.112 1984.34 174.96C1984.34 169.776 1985.84 165.488 1988.85 162.096C1991.86 158.704 1995.84 157.008 2000.8 157.008C2004.9 157.008 2008.18 158.096 2010.64 160.272C2013.14 162.416 2014.58 165.184 2014.96 168.576H2008.05C2007.73 166.816 2006.93 165.424 2005.65 164.4C2004.4 163.376 2002.79 162.864 2000.8 162.864C1997.76 162.864 1995.44 163.984 1993.84 166.224C1992.24 168.464 1991.44 171.376 1991.44 174.96C1991.44 178.512 1992.29 181.408 1993.99 183.648C1995.72 185.888 1998 187.008 2000.85 187.008C2002.87 187.008 2004.55 186.464 2005.89 185.376C2007.24 184.256 2008.02 182.784 2008.24 180.96H2015.06C2014.87 184.192 2013.6 186.896 2011.27 189.072C2008.68 191.504 2005.2 192.72 2000.85 192.72ZM2018.69 192V157.68H2025.65V192H2018.69ZM2030.97 192V157.68H2056.22V163.536H2037.93V171.216H2053.96V176.928H2037.93V186.192H2056.36V192H2030.97ZM2050.98 149.856L2046.42 155.856H2041.34L2043.35 149.856H2050.98ZM2058.91 163.536V157.68H2086.51V163.536H2076.19V192H2069.23V163.536H2058.91ZM2090.03 192V157.68H2115.28V163.536H2096.99V171.216H2113.02V176.928H2096.99V186.192H2115.42V192H2090.03ZM2110.05 149.856L2105.49 155.856H2100.4L2102.41 149.856H2110.05ZM1919.64 240V205.68H1933.03C1937.58 205.68 1941.22 207.328 1943.98 210.624C1946.73 213.888 1948.1 218.08 1948.1 223.2C1948.1 229.12 1946.28 233.616 1942.63 236.688C1939.98 238.896 1936.58 240 1932.46 240H1919.64ZM1926.6 234H1931.98C1935.14 234 1937.45 233.088 1938.89 231.264C1940.33 229.408 1941.05 226.72 1941.05 223.2C1941.05 219.68 1940.28 216.88 1938.74 214.8C1937.24 212.688 1935.05 211.632 1932.17 211.632H1926.6V234ZM1950.55 218.544V216.288C1951.42 216 1952.17 215.472 1952.81 214.704C1953.48 213.936 1953.82 213.008 1953.82 211.92H1950.65V205.68H1957.13V211.344C1957.13 213.392 1956.47 215.04 1955.16 216.288C1953.88 217.504 1952.34 218.256 1950.55 218.544ZM1954.27 240L1966.22 205.68H1973.42L1985.52 240H1978.27L1975.97 232.704H1963.58L1961.33 240H1954.27ZM1968.29 217.488L1965.21 227.376H1974.29L1971.21 217.488L1969.82 212.208H1969.73C1969.15 214.512 1968.67 216.272 1968.29 217.488ZM2001.51 240.72C1996.68 240.72 1992.71 239.056 1989.6 235.728C1986.53 232.368 1985 228.112 1985 222.96C1985 217.776 1986.5 213.488 1989.51 210.096C1992.52 206.704 1996.5 205.008 2001.46 205.008C2005.56 205.008 2008.84 206.096 2011.3 208.272C2013.8 210.416 2015.24 213.184 2015.62 216.576H2008.71C2008.39 214.816 2007.59 213.424 2006.31 212.4C2005.06 211.376 2003.44 210.864 2001.46 210.864C1998.42 210.864 1996.1 211.984 1994.5 214.224C1992.9 216.464 1992.1 219.376 1992.1 222.96C1992.1 226.512 1992.95 229.408 1994.64 231.648C1996.37 233.888 1998.66 235.008 2001.51 235.008C2003.52 235.008 2005.2 234.464 2006.55 233.376C2007.89 232.256 2008.68 230.784 2008.9 228.96H2015.72C2015.52 232.192 2014.26 234.896 2011.92 237.072C2009.33 239.504 2005.86 240.72 2001.51 240.72ZM2034.32 240.72C2029.49 240.72 2025.52 239.056 2022.42 235.728C2019.34 232.368 2017.81 228.112 2017.81 222.96C2017.81 217.776 2019.31 213.488 2022.32 210.096C2025.33 206.704 2029.31 205.008 2034.27 205.008C2038.37 205.008 2041.65 206.096 2044.11 208.272C2046.61 210.416 2048.05 213.184 2048.43 216.576H2041.52C2041.2 214.816 2040.4 213.424 2039.12 212.4C2037.87 211.376 2036.26 210.864 2034.27 210.864C2031.23 210.864 2028.91 211.984 2027.31 214.224C2025.71 216.464 2024.91 219.376 2024.91 222.96C2024.91 226.512 2025.76 229.408 2027.46 231.648C2029.18 233.888 2031.47 235.008 2034.32 235.008C2036.34 235.008 2038.02 234.464 2039.36 233.376C2040.7 232.256 2041.49 230.784 2041.71 228.96H2048.53C2048.34 232.192 2047.07 234.896 2044.74 237.072C2042.14 239.504 2038.67 240.72 2034.32 240.72ZM2079.18 235.776C2076.17 239.104 2072.17 240.768 2067.18 240.768C2062.19 240.768 2058.17 239.104 2055.13 235.776C2052.12 232.416 2050.62 228.128 2050.62 222.912C2050.62 217.696 2052.12 213.408 2055.13 210.048C2058.17 206.688 2062.19 205.008 2067.18 205.008C2072.17 205.008 2076.17 206.688 2079.18 210.048C2082.19 213.408 2083.69 217.696 2083.69 222.912C2083.69 228.128 2082.19 232.416 2079.18 235.776ZM2060.17 231.648C2061.84 233.92 2064.19 235.056 2067.23 235.056C2070.27 235.056 2072.59 233.936 2074.19 231.696C2075.79 229.424 2076.59 226.496 2076.59 222.912C2076.59 219.328 2075.79 216.4 2074.19 214.128C2072.59 211.856 2070.27 210.72 2067.23 210.72C2064.19 210.72 2061.84 211.856 2060.17 214.128C2058.54 216.4 2057.72 219.328 2057.72 222.912C2057.72 226.464 2058.54 229.376 2060.17 231.648ZM2087.5 240V205.68H2097.29L2102.14 222.912C2102.49 224.192 2102.84 225.616 2103.2 227.184C2103.58 228.72 2103.87 229.936 2104.06 230.832L2104.3 232.176H2104.4C2105 228.88 2105.71 225.792 2106.51 222.912L2111.36 205.68H2121.29V240H2114.81V220.32L2115.1 213.216H2115C2114.49 215.904 2114 218.08 2113.52 219.744L2107.61 240H2100.94L2095.18 219.744L2093.69 213.216H2093.6C2093.79 216.096 2093.88 218.464 2093.88 220.32V240H2087.5ZM2126.59 240V205.68H2141.67C2145.57 205.68 2148.56 206.752 2150.64 208.896C2152.69 211.008 2153.71 213.616 2153.71 216.72C2153.71 219.984 2152.69 222.608 2150.64 224.592C2148.59 226.576 2145.79 227.568 2142.24 227.568H2133.79V240H2126.59ZM2133.79 211.728V221.904H2140.99C2142.79 221.904 2144.16 221.456 2145.12 220.56C2146.08 219.632 2146.56 218.368 2146.56 216.768C2146.56 215.168 2146.08 213.936 2145.12 213.072C2144.16 212.176 2142.82 211.728 2141.09 211.728H2133.79ZM2151.52 240L2163.47 205.68H2170.67L2182.77 240H2175.52L2173.22 232.704H2160.83L2158.58 240H2151.52ZM2165.54 217.488L2162.46 227.376H2171.54L2168.46 217.488L2167.07 212.208H2166.98C2166.4 214.512 2165.92 216.272 2165.54 217.488ZM2208.89 240L2208.65 235.392H2208.55C2206.44 238.944 2203.22 240.72 2198.9 240.72C2193.88 240.72 2189.86 239.056 2186.85 235.728C2183.88 232.4 2182.39 228.144 2182.39 222.96C2182.39 217.072 2184.26 212.4 2188.01 208.944C2190.89 206.32 2194.57 205.008 2199.05 205.008C2203.24 205.008 2206.58 206.048 2209.08 208.128C2211.61 210.208 2213.16 212.992 2213.73 216.48H2206.92C2206.5 214.752 2205.64 213.376 2204.33 212.352C2203.01 211.296 2201.3 210.768 2199.19 210.768C2196.09 210.768 2193.69 211.904 2191.99 214.176C2190.33 216.448 2189.49 219.376 2189.49 222.96C2189.49 226.512 2190.36 229.424 2192.09 231.696C2193.85 233.968 2196.18 235.104 2199.09 235.104C2201.65 235.104 2203.77 234.32 2205.43 232.752C2207.09 231.152 2207.93 229.344 2207.93 227.328V227.136H2199.67V221.76H2214.12V240H2208.89ZM2218.98 240V205.68H2226.04L2237.46 224.832C2237.78 225.376 2238.14 226.048 2238.52 226.848C2238.94 227.648 2239.26 228.32 2239.48 228.864L2239.86 229.632H2239.96C2239.83 227.264 2239.77 225.28 2239.77 223.68V205.68H2246.63V240H2239.91L2228.2 221.04C2227.88 220.496 2227.51 219.84 2227.1 219.072C2226.68 218.272 2226.36 217.6 2226.14 217.056L2225.75 216.288H2225.66C2225.78 218.688 2225.85 220.688 2225.85 222.288V240H2218.98ZM2251.89 240V205.68H2277.14V211.536H2258.85V219.216H2274.88V224.928H2258.85V234.192H2277.28V240H2251.89ZM2281.61 240V205.68H2291.4L2296.25 222.912C2296.6 224.192 2296.95 225.616 2297.3 227.184C2297.69 228.72 2297.98 229.936 2298.17 230.832L2298.41 232.176H2298.5C2299.11 228.88 2299.82 225.792 2300.62 222.912L2305.46 205.68H2315.4V240H2308.92V220.32L2309.21 213.216H2309.11C2308.6 215.904 2308.1 218.08 2307.62 219.744L2301.72 240H2295.05L2289.29 219.744L2287.8 213.216H2287.7C2287.9 216.096 2287.99 218.464 2287.99 220.32V240H2281.61ZM2320.7 240V205.68H2345.95V211.536H2327.66V219.216H2343.69V224.928H2327.66V234.192H2346.09V240H2320.7ZM2350.42 240V205.68H2357.48L2368.9 224.832C2369.22 225.376 2369.57 226.048 2369.96 226.848C2370.37 227.648 2370.69 228.32 2370.92 228.864L2371.3 229.632H2371.4C2371.27 227.264 2371.21 225.28 2371.21 223.68V205.68H2378.07V240H2371.35L2359.64 221.04C2359.32 220.496 2358.95 219.84 2358.53 219.072C2358.12 218.272 2357.8 217.6 2357.57 217.056L2357.19 216.288H2357.09C2357.22 218.688 2357.29 220.688 2357.29 222.288V240H2350.42ZM2381.55 211.536V205.68H2409.15V211.536H2398.83V240H2391.87V211.536H2381.55ZM1919.64 288V253.68H1929.43L1934.28 270.912C1934.63 272.192 1934.98 273.616 1935.34 275.184C1935.72 276.72 1936.01 277.936 1936.2 278.832L1936.44 280.176H1936.54C1937.14 276.88 1937.85 273.792 1938.65 270.912L1943.5 253.68H1953.43V288H1946.95V268.32L1947.24 261.216H1947.14C1946.63 263.904 1946.14 266.08 1945.66 267.744L1939.75 288H1933.08L1927.32 267.744L1925.83 261.216H1925.74C1925.93 264.096 1926.02 266.464 1926.02 268.32V288H1919.64ZM1956.24 288L1968.19 253.68H1975.39L1987.49 288H1980.24L1977.93 280.704H1965.55L1963.29 288H1956.24ZM1970.25 265.488L1967.18 275.376H1976.25L1973.18 265.488L1971.79 260.208H1971.69C1971.12 262.512 1970.64 264.272 1970.25 265.488ZM1990.37 288V253.68H2006.12C2009.41 253.68 2012.07 254.56 2014.09 256.32C2016.13 258.08 2017.16 260.384 2017.16 263.232C2017.16 267.616 2015.06 270.384 2010.87 271.536V271.68C2012.5 272.16 2013.72 272.928 2014.52 273.984C2015.35 275.008 2015.88 276.544 2016.1 278.592C2016.17 279.36 2016.23 280.272 2016.29 281.328C2016.39 282.352 2016.45 283.168 2016.49 283.776C2016.55 284.384 2016.61 284.992 2016.68 285.6C2016.77 286.208 2016.89 286.688 2017.01 287.04C2017.17 287.36 2017.37 287.568 2017.59 287.664V288H2010.92C2010.79 287.936 2010.68 287.824 2010.58 287.664C2010.49 287.472 2010.41 287.216 2010.34 286.896C2010.28 286.576 2010.21 286.256 2010.15 285.936C2010.12 285.584 2010.07 285.152 2010.01 284.64C2009.97 284.096 2009.94 283.632 2009.91 283.248C2009.88 282.832 2009.83 282.304 2009.77 281.664C2009.73 280.992 2009.7 280.464 2009.67 280.08C2009.38 276.176 2007.14 274.224 2002.95 274.224H1997.33V288H1990.37ZM1997.33 259.296V268.848H2004.73C2006.55 268.848 2007.94 268.416 2008.9 267.552C2009.89 266.688 2010.39 265.552 2010.39 264.144C2010.39 262.704 2009.93 261.536 2009 260.64C2008.07 259.744 2006.71 259.296 2004.92 259.296H1997.33ZM2034.94 288.768C2030.3 288.768 2026.7 287.792 2024.14 285.84C2021.58 283.856 2020.23 281.04 2020.1 277.392H2026.92C2027.14 279.44 2027.86 280.912 2029.08 281.808C2030.33 282.704 2032.18 283.152 2034.65 283.152C2036.6 283.152 2038.2 282.8 2039.45 282.096C2040.7 281.36 2041.32 280.24 2041.32 278.736C2041.32 278.192 2041.24 277.712 2041.08 277.296C2040.95 276.848 2040.66 276.464 2040.22 276.144C2039.77 275.792 2039.38 275.52 2039.06 275.328C2038.74 275.104 2038.15 274.88 2037.29 274.656C2036.42 274.4 2035.77 274.224 2035.32 274.128C2034.87 274 2034.04 273.792 2032.82 273.504C2031.35 273.152 2030.14 272.848 2029.18 272.592C2028.25 272.336 2027.21 271.936 2026.06 271.392C2024.94 270.848 2024.04 270.256 2023.37 269.616C2022.73 268.944 2022.18 268.08 2021.74 267.024C2021.29 265.936 2021.06 264.704 2021.06 263.328C2021.06 260.032 2022.26 257.504 2024.66 255.744C2027.1 253.952 2030.28 253.056 2034.22 253.056C2038.12 253.056 2041.24 253.984 2043.58 255.84C2045.91 257.696 2047.21 260.336 2047.46 263.76H2040.79C2040.6 262.096 2039.9 260.816 2038.68 259.92C2037.5 259.024 2035.99 258.576 2034.17 258.576C2032.28 258.576 2030.78 258.944 2029.66 259.68C2028.54 260.416 2027.98 261.392 2027.98 262.608C2027.98 263.92 2028.52 264.88 2029.61 265.488C2030.73 266.096 2032.68 266.704 2035.46 267.312C2037.13 267.664 2038.49 268 2039.54 268.32C2040.6 268.608 2041.74 269.04 2042.95 269.616C2044.2 270.16 2045.16 270.768 2045.83 271.44C2046.54 272.112 2047.11 273.008 2047.56 274.128C2048.04 275.216 2048.28 276.48 2048.28 277.92C2048.28 281.312 2047.05 283.968 2044.58 285.888C2042.12 287.808 2038.9 288.768 2034.94 288.768ZM2052.44 288V253.68H2077.68V259.536H2059.4V267.216H2075.43V272.928H2059.4V282.192H2077.83V288H2052.44ZM2082.2 288V253.68H2089.16V288H2082.2ZM2094.48 288V253.68H2101.44V282.192H2117.57V288H2094.48ZM2121.3 288V253.68H2128.26V282.192H2144.38V288H2121.3ZM2145.85 288L2157.8 253.68H2165L2177.1 288H2169.85L2167.54 280.704H2155.16L2152.9 288H2145.85ZM2159.86 265.488L2156.79 275.376H2165.86L2162.79 265.488L2161.4 260.208H2161.3C2160.73 262.512 2160.25 264.272 2159.86 265.488ZM2180.03 288V253.68H2186.99V288H2180.03ZM2205.61 288.768C2200.97 288.768 2197.37 287.792 2194.81 285.84C2192.25 283.856 2190.9 281.04 2190.78 277.392H2197.59C2197.82 279.44 2198.54 280.912 2199.75 281.808C2201 282.704 2202.86 283.152 2205.32 283.152C2207.27 283.152 2208.87 282.8 2210.12 282.096C2211.37 281.36 2211.99 280.24 2211.99 278.736C2211.99 278.192 2211.91 277.712 2211.75 277.296C2211.62 276.848 2211.34 276.464 2210.89 276.144C2210.44 275.792 2210.06 275.52 2209.74 275.328C2209.42 275.104 2208.82 274.88 2207.96 274.656C2207.1 274.4 2206.44 274.224 2205.99 274.128C2205.54 274 2204.71 273.792 2203.5 273.504C2202.02 273.152 2200.81 272.848 2199.85 272.592C2198.92 272.336 2197.88 271.936 2196.73 271.392C2195.61 270.848 2194.71 270.256 2194.04 269.616C2193.4 268.944 2192.86 268.08 2192.41 267.024C2191.96 265.936 2191.74 264.704 2191.74 263.328C2191.74 260.032 2192.94 257.504 2195.34 255.744C2197.77 253.952 2200.95 253.056 2204.89 253.056C2208.79 253.056 2211.91 253.984 2214.25 255.84C2216.58 257.696 2217.88 260.336 2218.14 263.76H2211.46C2211.27 262.096 2210.57 260.816 2209.35 259.92C2208.17 259.024 2206.66 258.576 2204.84 258.576C2202.95 258.576 2201.45 258.944 2200.33 259.68C2199.21 260.416 2198.65 261.392 2198.65 262.608C2198.65 263.92 2199.19 264.88 2200.28 265.488C2201.4 266.096 2203.35 266.704 2206.14 267.312C2207.8 267.664 2209.16 268 2210.22 268.32C2211.27 268.608 2212.41 269.04 2213.62 269.616C2214.87 270.16 2215.83 270.768 2216.5 271.44C2217.21 272.112 2217.78 273.008 2218.23 274.128C2218.71 275.216 2218.95 276.48 2218.95 277.92C2218.95 281.312 2217.72 283.968 2215.26 285.888C2212.79 287.808 2209.58 288.768 2205.61 288.768ZM2223.11 288V253.68H2248.36V259.536H2230.07V267.216H2246.1V272.928H2230.07V282.192H2248.5V288H2223.11Z" fill="black"/>
<path d="M102.956 292C77.5548 292 57.2879 289.026 42.1552 283.078C27.2928 276.859 16.4838 267.532 9.72813 255.094C3.24271 242.387 0 225.894 0 205.617V193.45H248.067C248.067 205.346 248.878 214.539 250.499 221.028C252.391 227.517 255.499 232.113 259.822 234.817C264.146 237.52 270.361 238.872 278.468 238.872C286.034 238.872 291.844 237.25 295.897 234.006C300.221 230.761 302.383 225.489 302.383 218.189C302.383 210.889 297.654 204.941 288.196 200.344C278.738 195.748 266.713 192.098 252.121 189.394C237.529 186.691 217.397 183.852 191.725 180.878C152.543 176.011 120.251 170.874 94.8493 165.467C69.4481 160.059 47.5598 151.272 29.1844 139.106C11.0793 126.669 2.02669 109.77 2.02669 88.4111C2.02669 58.4 9.72813 36.2296 25.131 21.9C40.5339 7.3 66.2054 0 102.145 0H450.332C485.191 0 510.051 6.62408 524.914 19.8722C539.776 32.85 547.208 53.6685 547.208 82.3278V93.2778H302.383C302.383 78.6778 300.221 67.9982 295.897 61.2389C291.574 54.4796 284.278 51.1 274.009 51.1C266.443 51.1 260.498 52.8574 256.174 56.3722C252.121 59.6167 250.094 64.7537 250.094 71.7833C250.094 78.5426 254.418 84.0852 263.065 88.4111C271.982 92.4667 283.332 95.7111 297.113 98.1445C310.895 100.307 329.811 102.741 353.861 105.444C394.125 110.311 427.227 115.719 453.169 121.667C479.381 127.344 502.08 136.943 521.266 150.461C540.452 163.709 550.045 182.094 550.045 205.617C550.045 235.357 542.749 257.257 528.157 271.317C513.835 285.106 490.19 292 457.222 292H102.956Z" fill="black"/>
<path d="M630.131 4.05555H1034.66L1105.19 287.944H846.987L836.448 238.872H767.946L756.597 287.944H556.359L630.131 4.05555ZM822.262 175.2L803.211 87.6L782.944 175.2H822.262Z" fill="black"/>
<path d="M1117.19 4.05555H1459.36L1484.49 122.478L1510.43 4.05555H1870V287.944H1683.85V87.0496L1634.81 287.944H1334.86L1336.07 286.322L1333.24 287.944L1282.57 88.4111V287.944H1117.19V4.05555Z" fill="black"/>
</svg>
