<svg width="418" height="67" viewBox="0 0 418 67" fill="none" xmlns="http://www.w3.org/2000/svg">
<path d="M23.0137 67C17.3358 67 12.8055 66.3176 9.42294 64.9528C6.10075 63.5259 3.68461 61.3857 2.17452 58.5319C0.724841 55.6162 0 51.8319 0 47.1792V44.3875H55.4504C55.4504 47.1171 55.6316 49.2264 55.994 50.7153C56.4168 52.2042 57.1115 53.2588 58.0779 53.8792C59.0444 54.4995 60.4337 54.8097 62.2458 54.8097C63.9371 54.8097 65.2357 54.4375 66.1418 53.6931C67.1082 52.9486 67.5915 51.7389 67.5915 50.0639C67.5915 48.3889 66.5344 47.0241 64.4203 45.9694C62.3061 44.9148 59.6182 44.0773 56.3564 43.4569C53.0946 42.8366 48.5946 42.1852 42.8562 41.5028C34.0977 40.3861 26.8795 39.2074 21.2016 37.9667C15.5237 36.7259 10.631 34.7097 6.52357 31.9181C2.47654 29.0644 0.453026 25.187 0.453026 20.2861C0.453026 13.4 2.17452 8.31296 5.61752 5.025C9.06052 1.675 14.7988 0 22.8325 0H100.662C108.454 0 114.012 1.51991 117.334 4.55972C120.656 7.5375 122.317 12.3144 122.317 18.8903V21.4028H67.5915C67.5915 18.0528 67.1082 15.6023 66.1418 14.0514C65.1753 12.5005 63.5444 11.725 61.2491 11.725C59.5578 11.725 58.2289 12.1282 57.2625 12.9347C56.3564 13.6792 55.9034 14.8579 55.9034 16.4708C55.9034 18.0218 56.8698 19.2935 58.8028 20.2861C60.7961 21.2167 63.333 21.9611 66.4136 22.5194C69.4942 23.0157 73.7224 23.5741 79.0983 24.1944C88.0984 25.3111 95.4979 26.5519 101.297 27.9167C107.156 29.2194 112.23 31.4218 116.518 34.5236C120.807 37.5634 122.951 41.7819 122.951 47.1792C122.951 54.0032 121.32 59.0283 118.059 62.2542C114.857 65.4181 109.572 67 102.203 67H23.0137Z" fill="black"/>
<path d="M140.853 0.930555H231.277L247.042 66.0695H189.327L186.971 54.8097H171.659L169.122 66.0695H124.363L140.853 0.930555ZM183.8 40.2L179.541 20.1L175.011 40.2H183.8Z" fill="black"/>
<path d="M249.725 0.930555H326.21L331.828 28.1028L337.627 0.930555H418V66.0695H376.391V19.9737L365.428 66.0695H298.38L298.652 65.6972L298.017 66.0695L286.692 20.2861V66.0695H249.725V0.930555Z" fill="black"/>
</svg>
